<svg xmlns="http://www.w3.org/2000/svg" width="900" height="600" viewBox="0 0 900 600" role="img" aria-label="Red Rice">
  <defs>
    <linearGradient id="bg" x1="0" x2="1" y1="0" y2="1">
      <stop offset="0%" stop-color="#fff4eb"/>
      <stop offset="100%" stop-color="#ffffff"/>
    </linearGradient>
  </defs>
  <rect width="900" height="600" fill="url(#bg)"/>
  <circle cx="720" cy="120" r="90" fill="#496b2d" opacity="0.12"/>
  <circle cx="140" cy="500" r="120" fill="#496b2d" opacity="0.10"/>
  <g transform="translate(165 145)">
    <ellipse cx="90" cy="85" rx="26" ry="80" fill="#b95d43" transform="rotate(-35 90 85)"/>
    <ellipse cx="180" cy="70" rx="25" ry="82" fill="#b95d43" transform="rotate(-18 180 70)"/>
    <ellipse cx="270" cy="80" rx="27" ry="84" fill="#b95d43" transform="rotate(12 270 80)"/>
    <ellipse cx="360" cy="105" rx="25" ry="82" fill="#b95d43" transform="rotate(30 360 105)"/>
    <ellipse cx="450" cy="150" rx="25" ry="78" fill="#b95d43" transform="rotate(48 450 150)"/>
    <ellipse cx="150" cy="210" rx="28" ry="86" fill="#b95d43" transform="rotate(42 150 210)"/>
    <ellipse cx="260" cy="230" rx="26" ry="82" fill="#b95d43" transform="rotate(-42 260 230)"/>
    <ellipse cx="370" cy="250" rx="27" ry="84" fill="#b95d43" transform="rotate(-12 370 250)"/>
  </g>
  <text x="450" y="525" text-anchor="middle" font-family="Arial, sans-serif" font-size="42" font-weight="700" fill="#222">Red Rice</text>
</svg>
